<?xml version="1.0" encoding="UTF-8"?>
<!DOCTYPE svg PUBLIC "-//W3C//DTD SVG 1.1//EN" "http://www.w3.org/Graphics/SVG/1.1/DTD/svg11.dtd">
<!-- Creator: CorelDRAW 2021 (64-Bit) -->
<svg xmlns="http://www.w3.org/2000/svg" xml:space="preserve" width="570px" height="155px" version="1.1" style="shape-rendering:geometricPrecision; text-rendering:geometricPrecision; image-rendering:optimizeQuality; fill-rule:evenodd; clip-rule:evenodd"
viewBox="0 0 570 154.54"
 xmlns:xlink="http://www.w3.org/1999/xlink"
 xmlns:xodm="http://www.corel.com/coreldraw/odm/2003">
 <defs>
  <style type="text/css">
   <![CDATA[
    .fil0 {fill:black;fill-rule:nonzero}
   ]]>
  </style>
 </defs>
 <g id="Vrstva_x0020_1">
  <metadata id="CorelCorpID_0Corel-Layer"/>
  <path class="fil0" d="M127.6 76.12c0,25.33 -7.19,44.73 -21.59,58.2 -14.44,13.47 -35.24,20.22 -62.47,20.22l-43.54 0 0 -153.89 48.28 0c25.11,0 44.62,6.64 58.52,19.9 13.87,13.25 20.8,31.79 20.8,55.57zm-33.88 0.83c0,-33.05 -14.58,-49.58 -43.75,-49.58l-17.35 0 0 100.23 14.01 0c31.4,0 47.09,-16.88 47.09,-50.65zm155.73 77.59l-11.17 -36.64 -56.11 0 -11.14 36.64 -35.17 0 54.32 -154.54 39.87 0 54.54 154.54 -35.14 0zm-18.96 -64.01c-10.32,-33.2 -16.14,-51.98 -17.43,-56.33 -1.29,-4.35 -2.23,-7.8 -2.76,-10.31 -2.34,8.98 -8.99,31.18 -19.91,66.64l40.1 0zm106.08 -21.56l10.52 0c10.31,0 17.93,-1.72 22.81,-5.17 4.93,-3.41 7.37,-8.84 7.37,-16.2 0,-7.29 -2.52,-12.5 -7.51,-15.59 -5.03,-3.09 -12.79,-4.64 -23.31,-4.64l-9.88 0 0 41.6zm0 26.51l0 59.06 -32.62 0 0 -153.89 44.83 0c20.91,0 36.36,3.8 46.38,11.42 10.06,7.62 15.05,19.18 15.05,34.67 0,9.05 -2.48,17.1 -7.47,24.17 -4.96,7.04 -12,12.58 -21.13,16.56 23.14,34.6 38.23,56.98 45.23,67.07l-36.21 0 -36.71 -59.06 -17.35 0zm233.43 59.06l-37.04 0 -40.31 -64.84 -13.79 9.88 0 54.96 -32.62 0 0 -153.89 32.62 0 0 70.41 12.86 -18.11 41.64 -52.3 36.21 0 -53.64 68.11 54.07 85.78z"/>
 </g>
</svg>
