<?xml version="1.0" encoding="UTF-8"?>
<!DOCTYPE svg PUBLIC "-//W3C//DTD SVG 1.1//EN" "http://www.w3.org/Graphics/SVG/1.1/DTD/svg11.dtd">
<!-- Creator: CorelDRAW 2021 (64-Bit) -->
<svg xmlns="http://www.w3.org/2000/svg" xml:space="preserve" width="157.867mm" height="69.7314mm" version="1.1" style="shape-rendering:geometricPrecision; text-rendering:geometricPrecision; image-rendering:optimizeQuality; fill-rule:evenodd; clip-rule:evenodd"
viewBox="0 0 15772.41 6966.85"
 xmlns:xlink="http://www.w3.org/1999/xlink"
 xmlns:xodm="http://www.corel.com/coreldraw/odm/2003">
 <defs>
  <style type="text/css">
   <![CDATA[
    .fil0 {fill:#2B2A29}
    .fil1 {fill:#2B2A29;fill-rule:nonzero}
   ]]>
  </style>
 </defs>
 <g id="Vrstva_x0020_1">
  <metadata id="CorelCorpID_0Corel-Layer"/>
  <g id="_2402361340064">
   <path class="fil0" d="M-0 0l3981.85 0 0 994.7 0 1990.29 0 0.63 0 0c-0.35,2198.82 -1782.94,3981.22 -3981.85,3981.22l0 -994.7c1649.76,0 2987.15,-1337.39 2987.15,-2986.85l0 -1990.59 -2987.15 0 0 -994.7zm0 1990.29l1990.92 0 0 994.7 -0.3 0c-0.31,1099.22 -891.4,1990.31 -1990.62,1990.31l0 -1016.94c537.58,0 973.37,-435.79 973.37,-973.37l-973.37 0 0 -994.7z"/>
   <path class="fil1" d="M4771.63 1797.79c0,-75.14 20.19,-131.95 60.49,-170.43 40.31,-38.48 98.49,-57.73 175.46,-57.73 74.67,0 131.95,19.69 172.71,59.1 40.76,39.37 60.93,95.75 60.93,169.06 0,70.55 -20.73,126.35 -61.84,167.23 -40.86,40.64 -98.05,60.92 -171.8,60.92 -75.13,0 -133.22,-19.81 -174.1,-59.57 -41.11,-39.95 -61.84,-96.2 -61.84,-168.59zm2898.51 -807.73c0,323 -91.57,570.55 -275.36,742.2 -184.02,171.89 -449.5,257.95 -796.7,257.95l-555.28 0 0 -1962.7 615.74 0c320.26,0 569.16,84.68 746.33,253.81 176.91,168.93 265.27,405.47 265.27,708.74zm-432.03 10.56c0,-421.49 -186.07,-632.26 -558.03,-632.26l-221.28 0 0 1278.23 178.68 0c400.42,0 600.63,-215.32 600.63,-645.97zm1969.56 989.59l-1130.26 0 0 -1962.7 1130.26 0 0 340.85 -714.25 0 0 431.58 664.3 0 0 340.85 -664.3 0 0 505.79 714.25 0 0 343.62zm1568.23 -544.28c0,177.31 -64.18,316.59 -191.52,418.73 -127.33,102.13 -305.11,153.04 -532.35,153.04 -209.38,0 -394.93,-39.42 -555.75,-118.21l0 -386.66c132.42,59.1 244.67,100.82 336.29,125.07 91.59,24.25 175.47,36.2 251.53,36.2 91.61,0 161.66,-17.58 210.27,-52.24 48.92,-34.9 73.3,-87.04 73.3,-155.77 0,-38.49 -10.68,-72.78 -32.07,-102.62 -21.61,-30.11 -53.27,-58.98 -94.83,-86.59 -41.76,-27.75 -126.49,-72.41 -254.27,-132.85 -120,-56.76 -210.32,-110.91 -270.31,-162.65 -60,-51.71 -107.4,-112.44 -143.38,-181.43 -35.89,-68.83 -54.08,-149.35 -54.08,-241.43 0,-173.65 59.1,-310.17 176.84,-409.58 117.74,-99.42 280.4,-148.9 487.94,-148.9 102.17,0 199.34,11.9 292.3,36.19 92.53,24.2 189.2,58.18 290.45,102.17l-134.23 323.45c-104.91,-43.07 -191.52,-72.95 -259.76,-89.8 -68.69,-16.96 -136.08,-25.66 -202.06,-25.66 -78.79,0 -139.29,18.33 -181.43,54.97 -42.13,36.64 -63.22,84.75 -63.22,143.87 0,36.65 8.86,68.69 25.67,95.73 17,27.41 44.03,53.63 81.1,79.27 37.07,25.62 125.22,71.28 263.88,137.45 183.78,87.7 309.54,175.77 377.52,263.9 68,88.17 102.17,196.08 102.17,324.36zm355.04 544.28l0 -1962.7 416 0 0 1962.7 -416 0zm1654.84 -1102.28l778.37 0 0 1018.45c-126.44,41.23 -245.1,70.1 -356.44,86.59 -111.33,16.5 -225.4,24.74 -341.77,24.74 -295.95,0 -521.84,-87.11 -678.04,-261.14 -156.2,-174.08 -234.12,-423.8 -234.12,-749.53 0,-317.03 90.39,-563.87 271.67,-741.28 181.04,-177.16 432.02,-265.71 753.18,-265.71 201.6,0 395.85,40.31 582.77,120.94l-138.36 332.62c-142.96,-71.47 -291.85,-107.21 -446.71,-107.21 -180.04,0 -323.7,60.75 -432.02,181.43 -108.29,120.67 -162.65,283.13 -162.65,487 0,213.05 43.71,375.61 131.03,487.93 87.16,112.12 213.95,168.6 380.26,168.6 86.59,0 175.02,-9.17 264.35,-27.03l0 -410.04 -371.53 0 0 -346.35zm2986.63 1102.28l-528.7 0 -853.98 -1484.85 -11.9 0c16.94,262.51 25.64,449.5 25.64,561.24l0 923.61 -372 0 0 -1962.7 525.05 0 852.14 1470.19 9.61 0c-13.74,-255.19 -20.14,-435.7 -20.14,-541.07l0 -929.12 374.29 0 0 1962.7z"/>
  </g>
 </g>
</svg>
