<?xml version="1.0" encoding="UTF-8"?>
<!DOCTYPE svg PUBLIC "-//W3C//DTD SVG 1.1//EN" "http://www.w3.org/Graphics/SVG/1.1/DTD/svg11.dtd">
<!-- Creator: CorelDRAW 2021 (64-Bit) -->
<svg xmlns="http://www.w3.org/2000/svg" xml:space="preserve" width="799px" height="1398px" version="1.1" style="shape-rendering:geometricPrecision; text-rendering:geometricPrecision; image-rendering:optimizeQuality; fill-rule:evenodd; clip-rule:evenodd"
viewBox="0 0 797.32 1395.03"
 xmlns:xlink="http://www.w3.org/1999/xlink"
 xmlns:xodm="http://www.corel.com/coreldraw/odm/2003">
 <defs>
  <style type="text/css">
   <![CDATA[
    .fil0 {fill:black}
   ]]>
  </style>
 </defs>
 <g id="Vrstva_x0020_1">
  <metadata id="CorelCorpID_0Corel-Layer"/>
  <path class="fil0" d="M0 0l797.32 0 0 199.17 0 398.54 0 0.12 0 0c-0.07,440.29 -357.02,797.2 -797.32,797.2l0 -199.18c330.35,0 598.15,-267.8 598.15,-598.08l0 -398.6 -598.15 0 0 -199.17z"/>
  <path class="fil0" d="M0 398.53l398.66 0 0 199.18 -0.06 0c-0.07,220.1 -178.5,398.53 -398.6,398.53l0 -203.62c107.65,0 194.91,-87.27 194.91,-194.91l-194.91 0 0 -199.18z"/>
 </g>
</svg>
