<?xml version="1.0" encoding="UTF-8"?>
<!DOCTYPE svg PUBLIC "-//W3C//DTD SVG 1.1//EN" "http://www.w3.org/Graphics/SVG/1.1/DTD/svg11.dtd">
<!-- Creator: CorelDRAW 2021 (64-Bit) -->
<svg xmlns="http://www.w3.org/2000/svg" xml:space="preserve" width="615px" height="1075px" version="1.1" style="shape-rendering:geometricPrecision; text-rendering:geometricPrecision; image-rendering:optimizeQuality; fill-rule:evenodd; clip-rule:evenodd"
viewBox="0 0 613.32 1073.09"
 xmlns:xlink="http://www.w3.org/1999/xlink"
 xmlns:xodm="http://www.corel.com/coreldraw/odm/2003">
 <defs>
  <style type="text/css">
   <![CDATA[
    .fil0 {fill:#FEFEFE}
   ]]>
  </style>
 </defs>
 <g id="Vrstva_x0020_1">
  <metadata id="CorelCorpID_0Corel-Layer"/>
  <path class="fil0" d="M0 0l613.32 0 0 153.21 0 306.56 0 0.1 0 0c-0.05,338.68 -274.63,613.22 -613.32,613.22l0 -153.21c254.11,0 460.11,-206 460.11,-460.06l0 -306.61 -460.11 0 0 -153.21z"/>
  <path class="fil0" d="M0 306.56l306.66 0 0 153.21 -0.05 0c-0.05,169.31 -137.3,306.57 -306.61,306.57l0 -156.64c82.8,0 149.93,-67.12 149.93,-149.93l-149.93 0 0 -153.21z"/>
 </g>
</svg>
