<?xml version="1.0" encoding="UTF-8"?>
<!DOCTYPE svg PUBLIC "-//W3C//DTD SVG 1.1//EN" "http://www.w3.org/Graphics/SVG/1.1/DTD/svg11.dtd">
<!-- Creator: CorelDRAW 2021 (64-Bit) -->
<svg xmlns="http://www.w3.org/2000/svg" xml:space="preserve" width="577px" height="148px" version="1.1" style="shape-rendering:geometricPrecision; text-rendering:geometricPrecision; image-rendering:optimizeQuality; fill-rule:evenodd; clip-rule:evenodd"
viewBox="0 0 577 148.37"
 xmlns:xlink="http://www.w3.org/1999/xlink"
 xmlns:xodm="http://www.corel.com/coreldraw/odm/2003">
 <defs>
  <style type="text/css">
   <![CDATA[
    .fil0 {fill:#FEFEFE;fill-rule:nonzero}
   ]]>
  </style>
 </defs>
 <g id="Vrstva_x0020_1">
  <metadata id="CorelCorpID_0Corel-Layer"/>
  <path class="fil0" d="M0 146.35l0 -144.33 30.59 0 0 119.06 58.55 0 0 25.27 -89.14 0zm114.21 0l0 -144.33 30.59 0 0 144.33 -30.59 0zm121.68 -81.06l57.24 0 0 74.89c-9.3,3.03 -18.02,5.16 -26.21,6.37 -8.18,1.21 -16.57,1.82 -25.13,1.82 -21.76,0 -38.37,-6.4 -49.86,-19.2 -11.49,-12.81 -17.22,-31.17 -17.22,-55.12 0,-23.31 6.64,-41.47 19.98,-54.51 13.31,-13.04 31.77,-19.54 55.39,-19.54 14.82,0 29.1,2.96 42.85,8.89l-10.17 24.46c-10.51,-5.25 -21.46,-7.88 -32.85,-7.88 -13.24,0 -23.82,4.45 -31.77,13.34 -7.98,8.86 -11.96,20.82 -11.96,35.81 0,15.67 3.2,27.63 9.63,35.88 6.41,8.26 15.74,12.4 27.97,12.4 6.36,0 12.87,-0.67 19.44,-1.99l0 -30.15 -27.33 0 0 -25.47zm209.82 81.06l-30.49 0 0 -62.26 -57.13 0 0 62.26 -30.59 0 0 -144.33 30.59 0 0 56.6 57.13 0 0 -56.6 30.49 0 0 144.33zm92.11 0l-30.59 0 0 -118.86 -39.18 0 0 -25.47 108.95 0 0 25.47 -39.18 0 0 118.86z"/>
 </g>
</svg>
