<?xml version="1.0" encoding="UTF-8"?>
<!DOCTYPE svg PUBLIC "-//W3C//DTD SVG 1.1//EN" "http://www.w3.org/Graphics/SVG/1.1/DTD/svg11.dtd">
<!-- Creator: CorelDRAW 2021 (64-Bit) -->
<svg xmlns="http://www.w3.org/2000/svg" xml:space="preserve" width="100px" height="100px" version="1.1" style="shape-rendering:geometricPrecision; text-rendering:geometricPrecision; image-rendering:optimizeQuality; fill-rule:evenodd; clip-rule:evenodd"
viewBox="0 0 9.77 9.77"
 xmlns:xlink="http://www.w3.org/1999/xlink"
 xmlns:xodm="http://www.corel.com/coreldraw/odm/2003">
 <defs>
  <style type="text/css">
   <![CDATA[
    .fil0 {fill:black;fill-rule:nonzero}
   ]]>
  </style>
 </defs>
 <g id="Vrstva_x0020_1">
  <metadata id="CorelCorpID_0Corel-Layer"/>
  <path class="fil0" d="M0 0.7c0,-0.39 0.32,-0.7 0.72,-0.7l8.32 0c0.4,0 0.73,0.31 0.73,0.7l0 8.37c0,0.38 -0.33,0.7 -0.73,0.7l-8.32 0c-0.4,0 -0.72,-0.32 -0.72,-0.7l0 -8.37 0 0zm2.97 7.47l0 -4.39 -1.46 0 0 4.39 1.46 0 0 0zm-0.73 -4.99c0.51,0 0.82,-0.34 0.82,-0.76 -0.01,-0.44 -0.31,-0.76 -0.81,-0.76 -0.5,0 -0.83,0.32 -0.83,0.76 0,0.42 0.32,0.76 0.81,0.76l0.01 0 0 0zm1.54 4.99l1.46 0 0 -2.45c0,-0.13 0.01,-0.26 0.05,-0.36 0.1,-0.26 0.34,-0.53 0.75,-0.53 0.52,0 0.74,0.4 0.74,0.99l0 2.35 1.46 0 0 -2.52c0,-1.35 -0.72,-1.98 -1.68,-1.98 -0.79,0 -1.14,0.44 -1.33,0.74l0.01 0 0 -0.63 -1.46 0c0.02,0.41 0,4.39 0,4.39l0 0z"/>
 </g>
</svg>
