<?xml version="1.0" encoding="UTF-8"?>
<!DOCTYPE svg PUBLIC "-//W3C//DTD SVG 1.1//EN" "http://www.w3.org/Graphics/SVG/1.1/DTD/svg11.dtd">
<!-- Creator: CorelDRAW 2021 (64-Bit) -->
<svg xmlns="http://www.w3.org/2000/svg" xml:space="preserve" width="100px" height="100px" version="1.1" style="shape-rendering:geometricPrecision; text-rendering:geometricPrecision; image-rendering:optimizeQuality; fill-rule:evenodd; clip-rule:evenodd"
viewBox="0 0 100 100"
 xmlns:xlink="http://www.w3.org/1999/xlink"
 xmlns:xodm="http://www.corel.com/coreldraw/odm/2003">
 <defs>
  <style type="text/css">
   <![CDATA[
    .fil0 {fill:white;fill-rule:nonzero}
   ]]>
  </style>
 </defs>
 <g id="Vrstva_x0020_1">
  <metadata id="CorelCorpID_0Corel-Layer"/>
  <path class="fil0" d="M0 7.16c0,-3.95 3.31,-7.16 7.39,-7.16l85.22 0c4.08,0 7.39,3.21 7.39,7.16l0 85.68c0,3.95 -3.31,7.16 -7.39,7.16l-85.22 0c-4.08,0 -7.39,-3.21 -7.39,-7.16l0 -85.68 0 0zm30.39 76.53l0 -45.02 -14.97 0 0 45.02 14.97 0 0 0zm-7.48 -51.17c5.22,0 8.47,-3.46 8.47,-7.78 -0.1,-4.41 -3.25,-7.78 -8.37,-7.78 -5.12,0 -8.47,3.37 -8.47,7.78 0,4.32 3.25,7.78 8.27,7.78l0.1 0 0 0zm15.76 51.17l14.96 0 0 -25.14c0,-1.35 0.1,-2.69 0.5,-3.65 1.08,-2.69 3.54,-5.48 7.68,-5.48 5.41,0 7.58,4.13 7.58,10.18l0 24.09 14.96 0 0 -25.82c0,-13.82 -7.38,-20.26 -17.23,-20.26 -8.07,0 -11.61,4.51 -13.58,7.59l0.1 0 0 -6.53 -14.97 0c0.2,4.22 0,45.02 0,45.02l0 0z"/>
 </g>
</svg>
