<?xml version="1.0" encoding="UTF-8"?>
<!DOCTYPE svg PUBLIC "-//W3C//DTD SVG 1.1//EN" "http://www.w3.org/Graphics/SVG/1.1/DTD/svg11.dtd">
<!-- Creator: CorelDRAW 2021 (64-Bit) -->
<svg xmlns="http://www.w3.org/2000/svg" xml:space="preserve" width="23.7005mm" height="17.0497mm" version="1.1" style="shape-rendering:geometricPrecision; text-rendering:geometricPrecision; image-rendering:optimizeQuality; fill-rule:evenodd; clip-rule:evenodd"
viewBox="0 0 2370.06 1704.98"
 xmlns:xlink="http://www.w3.org/1999/xlink"
 xmlns:xodm="http://www.corel.com/coreldraw/odm/2003">
 <defs>
  <style type="text/css">
   <![CDATA[
    .fil0 {fill:black;fill-rule:nonzero}
   ]]>
  </style>
 </defs>
 <g id="Vrstva_x0020_1">
  <metadata id="CorelCorpID_0Corel-Layer"/>
  <path class="fil0" d="M84.67 0l2200.72 0c46.76,0 84.67,37.91 84.67,84.67l0 1535.64c0,46.76 -37.91,84.67 -84.67,84.67l-2200.72 0c-46.76,0 -84.67,-37.91 -84.67,-84.67l0 -1535.64c0,-46.76 37.91,-84.67 84.67,-84.67zm184.78 169.34l915.57 638.88 915.58 -638.88 -1831.16 0zm1931.27 135.78l-965.95 674.03c-28.29,20.66 -67.71,22.19 -98.03,1.01l-967.39 -675.04 0 1230.52 2031.38 0 0 -1230.52z"/>
 </g>
</svg>
